# xmcd
#
# Track frame offsets:
# 150
# 17434
# 33615
# 48746
# 64695
# 78859
# 94400
# 109480
# 122321
# 138781
# 156093
# 172963
# 188630
# 211320
# 228575
# 241766
# 256560
# 269153
# 285465
# 295255
#
# Disc length: 4165 seconds
#
#
# Revision: 6
# Processed by: cddbd v1.5.2PL0 Copyright (c) Steve Scherf et al.
# Submitted via: FreeRIP 2.95 
#
DISCID=13104314
DTITLE=RioNegro and Solimões - De Bem Com a Vida - Ao Vivo
DYEAR=2004
DGENRE=Country - Sertanejo
TTITLE0=Vai Começar de Novo
TTITLE1=Amor Desencontrado
TTITLE2=Movido Pela Emoção
TTITLE3=Esperando na Janela
TTITLE4=O Grito da Galera
TTITLE5=Não Tô Nem Aí
TTITLE6=Tendel
TTITLE7=De Bem com a Vida
TTITLE8=Tô Por Aí
TTITLE9=No Fim Desta Estrada
TTITLE10=Lenha
TTITLE11=Planeta Azul
TTITLE12=Frio da Madrugada
TTITLE13=Boiadeiro e Violeiro
TTITLE14=Na Sola da Bota
TTITLE15=Só Alegria
TTITLE16=Bate o Pé
TTITLE17=Estrela Guia-A Gente se Entrega(Pout.Pourri)
TTITLE18=Tá Mentindo
TTITLE19=Floresce
EXTD=
EXTT0=
EXTT1=
EXTT2=
EXTT3=
EXTT4=
EXTT5=
EXTT6=
EXTT7=
EXTT8=
EXTT9=
EXTT10=
EXTT11=
EXTT12=
EXTT13=
EXTT14=
EXTT15=
EXTT16=
EXTT17=
EXTT18=
EXTT19=
PLAYORDER=
